<?xml version="1.0" encoding="UTF-8"?>
<svg id="Layer_1" xmlns="http://www.w3.org/2000/svg" version="1.1" viewBox="0 0 800 800">
  <!-- Generator: Adobe Illustrator 29.4.0, SVG Export Plug-In . SVG Version: 2.1.0 Build 152)  -->
  <defs>
    <style>
      .st0 {
        stroke-miterlimit: 133.3;
      }

      .st0, .st1 {
        fill: none;
        stroke: #6750a4;
        stroke-linecap: round;
        stroke-width: 62px;
      }

      .st1 {
        stroke-linejoin: round;
      }
    </style>
  </defs>
  <g id="SVGRepo_iconCarrier">
    <path class="st1" d="M66.7,400.5h466.7M533.3,400.5l-116.7-100M533.3,400.5l-116.7,100"/>
    <path class="st0" d="M300,233.9c.4-72.5,3.6-111.8,29.2-137.4,29.3-29.3,76.4-29.3,170.7-29.3h33.3c94.3,0,141.4,0,170.7,29.3,29.3,29.3,29.3,76.4,29.3,170.7v266.7c0,94.3,0,141.4-29.3,170.7s-64.9,28.8-137.4,29.2M300,567.2c.4,72.5,3.6,111.8,29.2,137.4,21.4,21.4,52.3,27.2,104,28.7"/>
  </g>
</svg>