<?xml version="1.0" encoding="UTF-8"?>
<svg xmlns="http://www.w3.org/2000/svg" version="1.1" viewBox="0 0 1241 1165.5">
  <!-- Generator: Adobe Illustrator 29.4.0, SVG Export Plug-In . SVG Version: 2.1.0 Build 152)  -->
  <defs>
    <style>
      .st0, .st1, .st2, .st3 {
        stroke-miterlimit: 10;
      }

      .st0, .st4 {
        stroke-width: 12px;
      }

      .st0, .st4, .st2, .st5 {
        stroke: #6751a1;
        stroke-linecap: round;
      }

      .st0, .st2, .st5, .st3 {
        fill: none;
      }

      .st1 {
        fill: #e00aff;
        stroke-width: 25px;
      }

      .st1, .st3 {
        stroke: #fff;
      }

      .st6, .st4 {
        fill: #6751a1;
      }

      .st4, .st5 {
        stroke-linejoin: round;
      }

      .st2 {
        stroke-width: 52px;
      }

      .st5 {
        stroke-width: 3px;
      }

      .st3 {
        stroke-width: 2px;
      }

      .st7 {
        display: none;
      }
    </style>
  </defs>
  <g id="Layer_2" class="st7">
    <rect class="st1" x="-19.3" y="-27.3" width="1272" height="1230.7"/>
  </g>
  <g id="Layer_1">
    <g>
      <line class="st0" x1="339.7" y1="324" x2="874.6" y2="324"/>
      <rect class="st4" x="339.7" y="265.3" width="534.9" height="50.8" rx="21.2" ry="21.2"/>
      <polygon class="st5" points="872.4 324.7 879.6 323.8 879.5 289 873.7 298.6 872.4 324.7"/>
      <polygon class="st5" points="335.4 322.9 334.8 324 334.7 286.9 335.4 291.6 335.4 322.9"/>
    </g>
    <path class="st6" d="M612.2,224.9s-62.2-146.2,252.6-215.9c0,0-9.4,236.2-243,230,24.9-39.9,80.5-88.9,145.3-137.3-101.3,46.1-140.2,105.6-154.9,123.2h0Z"/>
    <path class="st6" d="M597.8,224.5c8.5-1.3-4.4-174.6-240.7-153,0,0,4.9,150.9,233.6,167.6-38.3-60.4-112.9-101.4-154.5-116.3,23.2,1.2,94.5,17.3,161.6,101.7h0Z"/>
    <polygon class="st4" points="339.8 285.9 340.6 320.8 385.2 320.7 339.8 285.9"/>
    <polygon class="st4" points="874.6 289 873.8 323.8 829.3 323.7 874.6 289"/>
    <line class="st2" x1="360.9" y1="369.3" x2="852" y2="369.3"/>
    <path class="st6" d="M345.7,480.9c21.6,7.7,42,14.9,83.8,14.9s62.2-7.3,83.8-14.9c23.1-8.2,46.9-16.7,94-16.7s70.9,8.5,94,16.7c21.6,7.7,42,14.9,83.8,14.9s62.2-7.3,83.8-14.9c10.6-3.8,21.3-7.6,34.4-10.6-8.2-12.6-18.8-25.9-32.7-38.9,0,0-22.2-21.3-23.9-65.7h-481.9c-1.7,44.3-23.9,65.7-23.9,65.7-13.7,12.9-24.2,25.9-32.3,38.3,14.3,3.1,25.8,7.2,37.1,11.2Z"/>
    <g>
      <path class="st6" d="M345.7,1095.1c21.6,7.7,42,14.9,83.8,14.9s62.2-7.3,83.8-14.9c23.1-8.2,46.9-16.7,94-16.7s70.9,8.5,94,16.7c21.6,7.7,42,14.9,83.8,14.9s62.2-7.3,83.8-14.9c15.7-5.6,31.9-11.3,55.5-14.4,3.8-13.3,5.9-28.6,5.9-46.1v-498.9s-.6-19.1-12-45.7c-15.4,2.8-27.1,7-39.2,11.3-23.1,8.2-46.9,16.7-94,16.7s-70.9-8.5-94-16.7c-21.6-7.7-42-14.9-83.8-14.9s-62.2,7.3-83.8,14.9c-23.1,8.2-46.9,16.7-94,16.7s-70.9-8.5-94-16.7c-12.9-4.6-25.3-9-42.1-11.8-11.6,26.8-12.2,46.2-12.2,46.2v498.9c0,17.3,2.1,32.4,5.8,45.7,25.4,3,42.3,9,58.7,14.8ZM328.2,591c4.2-5.2,9.3-9.9,15.3-14.1,6-4.2,12.2-7.9,18.7-11,6.5-3.1,12.7-5.6,18.5-7.5,23.4-7.7,43.6-14.2,60.6-19.6,16.9-5.4,33.5-9.4,49.9-12.1,16.3-2.7,33.7-3.9,52.2-3.7,18.5.2,40.9,2,67.5,5.5,21.5,5.4,36.4,12.7,44.7,21.9,8.3,9.2,11.8,19.6,10.7,31.1-1.2,11.5-6,23.7-14.4,36.6-8.5,12.9-18.7,25.8-30.9,38.6-5.2,5.5-10.6,11-16.1,16.4,5.9-2.7,11.5-5,16.7-6.7,23.4-7.7,43.6-14.2,60.6-19.6,16.9-5.4,33.5-9.4,49.9-12.1,16.3-2.7,33.7-3.9,52.2-3.7,18.5.2,40.9,2,67.5,5.5,21.5,5.4,36.4,12.7,44.7,21.9,8.3,9.2,11.8,19.6,10.7,31.1-1.2,11.5-6,23.7-14.4,36.6-8.5,12.9-18.7,25.8-30.9,38.6-12.1,12.9-25.2,25.5-39.2,37.8-14,12.3-27,23.5-38.9,33.4-11.9,10-21.8,18.7-29.7,26-7.9,7.3-12,12.3-12.4,15l-20.2,179.9-3.5,4.6c-1.9,2.7-4.3,5.5-7.2,8.4-2.9,2.9-6.2,5.3-9.8,7.2-3.7,1.9-6.8,1.9-9.5,0v-170.1c-2.7,2.3-7,6.1-13,11.2-6,5.2-12.7,10.4-20.2,15.6-7.5,5.2-15.4,9.3-23.6,12.4-8.3,3.1-16.1,3.5-23.4,1.2-3.1-1.2-5.5-2.9-7.2-5.2s-2.9-4.9-3.5-7.8c-.6-2.9-.8-5.9-.6-8.9.2-3.1.7-6,1.4-8.7l105-60v-170.1c0-3.5,2.1-6.1,6.3-7.8,4.2-1.7,8.8-2.6,13.8-2.6s9.6.9,13.8,2.6c4.2,1.7,6.3,4.3,6.3,7.8v140.1c16.1-8.5,32-18.9,47.6-31.4,15.6-12.5,29-25.6,40.4-39.2,11.3-13.6,19.5-27,24.5-40.1,5-13.1,5-24.5,0-34.3-5-9.8-16.1-17.1-33.2-21.9-17.1-4.8-42-5.9-74.7-3.2-6.9.8-15.8,2.9-26.5,6.3-10.8,3.5-22.5,7.7-35.2,12.7-12.7,5-25.7,10.2-38.9,15.6-13.3,5.4-25.9,10.3-37.8,14.7-11.9,4.4-22.5,7.7-31.7,9.8-9.2,2.1-16,2.4-20.2.9.3-1.8.8-3.5,1.3-5.2-6.8,5.8-13.3,11.4-19.5,16.6-11.9,10-21.8,18.7-29.7,26-7.9,7.3-12,12.3-12.4,15l-20.2,179.9-3.5,4.6c-1.9,2.7-4.3,5.5-7.2,8.4-2.9,2.9-6.2,5.3-9.8,7.2-3.7,1.9-6.8,1.9-9.5,0v-170.1c-2.7,2.3-7,6.1-13,11.2-6,5.2-12.7,10.4-20.2,15.6-7.5,5.2-15.4,9.3-23.6,12.4-8.3,3.1-16.1,3.5-23.4,1.2-3.1-1.2-5.5-2.9-7.2-5.2-1.7-2.3-2.9-4.9-3.5-7.8-.6-2.9-.8-5.9-.6-8.9.2-3.1.7-6,1.4-8.7l105-60v-170.1c0-3.5,2.1-6.1,6.3-7.8,4.2-1.7,8.8-2.6,13.8-2.6s9.6.9,13.8,2.6c4.2,1.7,6.3,4.3,6.3,7.8v140.1c16.1-8.5,32-18.9,47.6-31.4,15.6-12.5,29-25.6,40.4-39.2,11.3-13.6,19.5-27,24.5-40.1,5-13.1,5-24.5,0-34.3-5-9.8-16.1-17.1-33.2-21.9-17.1-4.8-42-5.9-74.7-3.2-6.9.8-15.8,2.9-26.5,6.3-10.8,3.5-22.5,7.7-35.2,12.7-12.7,5-25.7,10.2-38.9,15.6-13.3,5.4-25.9,10.3-37.8,14.7-11.9,4.4-22.5,7.7-31.7,9.8-9.2,2.1-16,2.4-20.2.9,1.2-6.5,3.8-12.4,8.1-17.6Z"/>
      <path class="st6" d="M879.5,1115.7c-23.1,8.2-46.9,16.7-94,16.7s-70.9-8.5-94-16.7c-21.6-7.7-42-14.9-83.8-14.9s-62.2,7.3-83.8,14.9c-23.1,8.2-46.9,16.7-94,16.7s-70.9-8.5-94-16.7c-10.6-3.8-21-7.5-33.7-10.2,38.3,59.5,116.8,57.5,116.8,57.5h374.4s77.7,1.9,116.2-56.7c-11.1,2.6-20.5,6-30.1,9.4Z"/>
    </g>
    <path class="st3" d="M878,399.3"/>
    <path class="st3" d="M340,399.3"/>
  </g>
</svg>