<?xml version="1.0" encoding="UTF-8"?>
<svg id="Layer_1" data-name="Layer 1" xmlns="http://www.w3.org/2000/svg" viewBox="0 0 1297 1255.67">
  <defs>
    <style>
      .cls-1, .cls-2 {
        stroke-width: 12px;
      }

      .cls-1, .cls-2, .cls-3, .cls-4 {
        stroke: #6751a1;
        stroke-linecap: round;
      }

      .cls-1, .cls-3 {
        stroke-miterlimit: 10;
      }

      .cls-1, .cls-3, .cls-4 {
        fill: none;
      }

      .cls-5, .cls-2 {
        fill: #6751a1;
      }

      .cls-2, .cls-4 {
        stroke-linejoin: round;
      }

      .cls-3 {
        stroke-width: 52px;
      }

      .cls-4 {
        stroke-width: 3px;
      }
    </style>
  </defs>
  <g>
    <line class="cls-1" x1="371.52" y1="363.87" x2="906.46" y2="363.87"/>
    <rect class="cls-2" x="371.52" y="305.14" width="534.94" height="50.83" rx="21.18" ry="21.18"/>
    <polygon class="cls-4" points="904.25 364.56 911.39 363.59 911.37 328.8 905.52 338.48 904.25 364.56"/>
    <polygon class="cls-4" points="367.22 362.75 366.59 363.87 366.54 326.69 367.22 331.4 367.22 362.75"/>
  </g>
  <path class="cls-5" d="M644.08,264.73s-62.24-146.22,252.6-215.9c0,0-9.4,236.25-243.04,229.99,24.9-39.94,80.49-88.89,145.34-137.27-101.33,46.08-140.25,105.65-154.9,123.18h0Z"/>
  <path class="cls-5" d="M629.64,264.35c8.51-1.27-4.4-174.65-240.7-153,0,0,4.93,150.89,233.6,167.59-38.28-60.44-112.86-101.36-154.54-116.34,23.16,1.15,94.48,17.28,161.64,101.75h0Z"/>
  <polygon class="cls-2" points="371.66 325.78 372.45 360.63 417.03 360.51 371.66 325.78"/>
  <polygon class="cls-2" points="906.46 328.8 905.67 363.65 861.09 363.53 906.46 328.8"/>
  <line class="cls-3" x1="392.69" y1="409.12" x2="883.82" y2="409.12"/>
  <path class="cls-5" d="M377.56,520.7c21.58,7.69,41.97,14.95,83.78,14.95s62.2-7.26,83.78-14.95c23.07-8.22,46.92-16.71,93.99-16.71s70.93,8.5,94,16.71c21.58,7.69,41.97,14.95,83.79,14.95s62.2-7.26,83.79-14.95c10.58-3.77,21.33-7.59,34.41-10.63-8.18-12.62-18.83-25.88-32.71-38.94,0,0-22.17-21.32-23.88-65.66h-481.85c-1.7,44.34-23.88,65.66-23.88,65.66-13.66,12.86-24.2,25.9-32.32,38.34,14.31,3.13,25.81,7.22,37.11,11.24Z"/>
  <g>
    <path class="cls-5" d="M377.58,1134.96c21.58,7.69,41.97,14.95,83.78,14.95s62.2-7.26,83.78-14.95c23.07-8.22,46.92-16.71,93.99-16.71s70.93,8.5,94,16.71c21.58,7.69,41.97,14.95,83.79,14.95s62.2-7.26,83.79-14.95c15.74-5.61,31.86-11.34,55.46-14.42,3.76-13.3,5.91-28.55,5.91-46.05v-498.91s-.57-19.08-11.99-45.65c-15.35,2.84-27.09,7.01-39.2,11.33-23.07,8.22-46.92,16.71-94,16.71s-70.93-8.5-94-16.71c-21.58-7.69-41.97-14.95-83.79-14.95s-62.2,7.26-83.78,14.95c-23.07,8.22-46.92,16.71-93.99,16.71s-70.93-8.5-93.99-16.71c-12.85-4.58-25.28-9-42.07-11.83-11.63,26.84-12.2,46.16-12.2,46.16v498.91c0,17.32,2.11,32.44,5.8,45.65,25.39,2.96,42.25,8.96,58.71,14.82ZM360.05,630.78c4.23-5.19,9.32-9.89,15.28-14.13,5.96-4.23,12.2-7.87,18.74-10.96,6.53-3.07,12.69-5.57,18.45-7.5,23.45-7.69,43.63-14.22,60.55-19.61,16.91-5.38,33.54-9.42,49.88-12.11,16.34-2.68,33.74-3.94,52.19-3.75,18.45.2,40.94,2.02,67.47,5.48,21.53,5.39,36.42,12.69,44.69,21.91,8.26,9.23,11.82,19.61,10.67,31.14-1.15,11.53-5.97,23.74-14.42,36.62-8.46,12.88-18.74,25.76-30.85,38.64-5.19,5.52-10.57,10.98-16.11,16.4,5.88-2.7,11.47-4.95,16.72-6.71,23.45-7.69,43.63-14.22,60.55-19.61,16.91-5.38,33.54-9.42,49.88-12.11,16.34-2.68,33.74-3.94,52.19-3.75,18.45.2,40.94,2.02,67.47,5.48,21.53,5.39,36.42,12.69,44.69,21.91,8.26,9.23,11.82,19.61,10.67,31.14-1.15,11.53-5.97,23.74-14.42,36.62-8.46,12.88-18.74,25.76-30.85,38.64-12.11,12.89-25.18,25.47-39.21,37.77-14.04,12.31-27.01,23.45-38.93,33.45-11.92,10-21.82,18.65-29.7,25.95-7.88,7.31-12.02,12.31-12.4,14.99l-20.18,179.92-3.46,4.61c-1.93,2.69-4.33,5.48-7.21,8.36-2.88,2.88-6.15,5.29-9.8,7.21-3.66,1.92-6.83,1.92-9.51,0v-170.12c-2.69,2.31-7.02,6.06-12.98,11.24-5.96,5.19-12.69,10.38-20.18,15.57-7.5,5.19-15.38,9.33-23.64,12.4-8.27,3.08-16.06,3.46-23.35,1.15-3.08-1.15-5.48-2.88-7.21-5.19s-2.88-4.9-3.46-7.79c-.58-2.88-.77-5.86-.58-8.94.19-3.07.67-5.96,1.44-8.65l104.96-59.97v-170.12c0-3.46,2.11-6.06,6.34-7.78,4.23-1.73,8.84-2.6,13.84-2.6s9.6.86,13.84,2.6c4.23,1.73,6.34,4.32,6.34,7.78v140.13c16.15-8.45,32.01-18.93,47.58-31.43,15.57-12.49,29.02-25.56,40.37-39.21,11.34-13.64,19.51-27.01,24.51-40.08,4.99-13.07,4.99-24.51,0-34.31-5-9.8-16.06-17.1-33.16-21.91-17.11-4.8-42.01-5.86-74.68-3.17-6.92.78-15.77,2.88-26.53,6.34-10.77,3.46-22.49,7.7-35.18,12.69-12.69,5-25.66,10.19-38.93,15.57-13.26,5.39-25.86,10.29-37.77,14.7-11.92,4.42-22.49,7.7-31.72,9.8-9.23,2.12-15.96,2.41-20.18.86.32-1.79.76-3.53,1.31-5.22-6.79,5.84-13.29,11.37-19.51,16.58-11.92,10-21.82,18.65-29.7,25.95-7.88,7.31-12.02,12.31-12.4,14.99l-20.18,179.92-3.46,4.61c-1.93,2.69-4.33,5.48-7.21,8.36-2.88,2.88-6.15,5.29-9.8,7.21-3.66,1.92-6.83,1.92-9.52,0v-170.12c-2.69,2.31-7.02,6.06-12.98,11.24-5.96,5.19-12.69,10.38-20.18,15.57-7.5,5.19-15.38,9.33-23.64,12.4-8.27,3.08-16.06,3.46-23.36,1.15-3.08-1.15-5.48-2.88-7.21-5.19-1.73-2.31-2.88-4.9-3.46-7.79-.58-2.88-.77-5.86-.58-8.94.19-3.07.67-5.96,1.44-8.65l104.96-59.97v-170.12c0-3.46,2.11-6.06,6.34-7.78,4.23-1.73,8.84-2.6,13.84-2.6s9.61.86,13.84,2.6c4.23,1.73,6.34,4.32,6.34,7.78v140.13c16.15-8.45,32.01-18.93,47.58-31.43,15.57-12.49,29.02-25.56,40.37-39.21,11.34-13.64,19.51-27.01,24.51-40.08,4.99-13.07,4.99-24.51,0-34.31-5-9.8-16.06-17.1-33.16-21.91-17.11-4.8-42.01-5.86-74.68-3.17-6.92.78-15.77,2.88-26.53,6.34-10.77,3.46-22.49,7.7-35.18,12.69-12.69,5-25.66,10.19-38.93,15.57-13.26,5.39-25.86,10.29-37.77,14.7-11.92,4.42-22.49,7.7-31.72,9.8-9.23,2.12-15.96,2.41-20.18.86,1.15-6.53,3.84-12.4,8.07-17.59Z"/>
    <path class="cls-5" d="M911.38,1155.52c-23.07,8.22-46.92,16.71-94,16.71s-70.93-8.5-94-16.71c-21.58-7.69-41.97-14.95-83.78-14.95s-62.2,7.26-83.78,14.95c-23.07,8.22-46.92,16.71-93.99,16.71s-70.93-8.5-93.99-16.71c-10.63-3.79-20.98-7.47-33.74-10.23,38.3,59.47,116.75,57.54,116.75,57.54h374.39s77.73,1.92,116.22-56.71c-11.11,2.65-20.48,5.98-30.07,9.4Z"/>
  </g>
</svg>