<?xml version="1.0" encoding="UTF-8"?>
<svg id="Layer_1" xmlns="http://www.w3.org/2000/svg" version="1.1" viewBox="0 0 800 800">
  <!-- Generator: Adobe Illustrator 29.4.0, SVG Export Plug-In . SVG Version: 2.1.0 Build 152)  -->
  <defs>
    <style>
      .st0 {
        fill: none;
        stroke: #6750a4;
        stroke-linecap: round;
        stroke-linejoin: round;
        stroke-width: 62px;
      }

      .st1 {
        fill: #6750a4;
      }
    </style>
  </defs>
  <g id="SVGRepo_iconCarrier">
    <path class="st0" d="M125.7,582.1c-44.3-45.2-74.4-102.5-86.4-164.6-12.2-62.3-5.9-126.9,18-185.7,23.7-58.5,64.2-108.7,116.3-144.3,105.8-72.2,245-72.2,350.8,0,52.1,35.6,92.6,85.8,116.3,144.3,23.9,58.8,30.2,123.4,18,185.7-12.1,62.2-42.1,119.4-86.4,164.6-58.7,60.2-139.2,94.2-223.2,94.2s-164.6-34-223.2-94.2h0Z"/>
    <path class="st1" d="M359.4,158.9c-20.4,2.2-35.2,20.4-33,40.8,2.2,20.4,20.4,35.2,40.8,33l-7.8-73.8ZM451.1,282.1c8,18.9,29.8,27.7,48.7,19.7,18.9-8,27.7-29.8,19.7-48.7l-68.4,29ZM605.5,549.2c-14.5-14.5-17.2-4.3-31.7,10.3-14.5,14.5-35.3,27.8-20.8,42.3l52.5-52.6ZM720.8,769.2c14.5,14.5,38,14.5,52.5,0,14.5-14.5,14.5-38,0-52.5l-52.5,52.6ZM367.2,232.7c35.8-3.8,69.8,16.3,83.8,49.4l68.4-29c-26.8-63.2-91.8-101.5-160-94.3l7.8,73.8ZM553.1,601.7l167.7,167.4,52.5-52.6-167.7-167.4-52.5,52.6Z"/>
  </g>
</svg>